<?xml version="1.0" encoding="UTF-8"?>
<svg xmlns="http://www.w3.org/2000/svg" viewBox="0 0 512 512" width="512" height="512">
  <defs>
    <style><![CDATA[
      .bg { fill: #f5f0e4; }
      .base { stroke: #2a221c; stroke-width: 1.60; fill: none; opacity: 0.78; }
      .primary { stroke: #241913; stroke-width: 2.80; fill: none; stroke-linecap: round; stroke-linejoin: round; }
      .call { stroke: #5b2a22; stroke-width: 2.0; fill: none; stroke-linecap: round; opacity: 0.9; }
      .branch { stroke: #6b342d; stroke-width: 1.6; fill: none; stroke-linecap: round; }
      .loop { stroke: #2d5f5a; stroke-width: 1.6; fill: none; stroke-linecap: round; }
      .bind { stroke: #73493d; stroke-width: 1.4; fill: none; stroke-linecap: round; }
      .term { stroke: #201814; stroke-width: 1.7; fill: none; stroke-linecap: round; }
      .node-main { fill: #fffaf1; stroke: #201814; stroke-width: 2.0; }
      .node-entry { fill: #efe6d4; stroke: #201814; stroke-width: 2.4; }
      .node-aux { fill: #f6efe0; stroke: #4f4339; stroke-width: 1.3; }
      .node-loop { fill: #edf3f1; stroke: #2d5f5a; stroke-width: 1.4; }
      .node-term { fill: #f3e7e3; stroke: #5a2a23; stroke-width: 1.4; }
      .orn { stroke: #355d58; stroke-width: 1.0; fill: none; opacity: 0.55; }
      .hash { fill: #1f1a17; font: 10px monospace; letter-spacing: 0.8px; }
      .label { fill: #1f1a17; font: 8px monospace; opacity: 0.7; }
    ]]></style>
  </defs>
  <rect class="bg" x="0" y="0" width="512" height="512"/>
  <g id="foundation">
    <circle class="base" cx="256" cy="256" r="226"/>
  </g>
  <g id="primary_path">
    <path class="primary" d="M 403.21 225.40 Q 279.78 273.39 181.42 362.04" stroke-width="2.60" opacity="0.96"/>
    <path class="primary" d="M 181.42 362.04 Q 182.22 264.64 149.52 172.90" stroke-width="2.60" opacity="0.96"/>
  </g>
  <g id="call_links">
  </g>
  <g id="branches">
  </g>
  <g id="loops">
  </g>
  <g id="bindings">
    <path class="bind" d="M 403.21 225.40 Q 389.01 220.96 377.75 230.70" stroke-width="1.44" opacity="0.85"/>
    <line class="bind" x1="398.93" y1="230.38" x2="397.30" y2="222.55" opacity="0.75"/>
    <line class="bind" x1="396.59" y1="231.89" x2="394.55" y2="222.10" opacity="0.75"/>
    <line class="bind" x1="393.84" y1="231.44" x2="392.21" y2="223.60" opacity="0.75"/>
    <line class="bind" x1="382.97" y1="230.09" x2="388.93" y2="229.41" opacity="0.58"/>
    <line class="bind" x1="374.77" y1="235.02" x2="369.67" y2="242.43" opacity="0.58"/>
    <line class="bind" x1="375.57" y1="225.92" x2="373.07" y2="220.47" opacity="0.58"/>
  </g>
  <g id="terminals">
    <path class="term" d="M 403.21 225.40 Q 373.81 227.27 350.01 244.63" stroke-width="1.65" opacity="0.90"/>
    <path class="term" d="M 181.42 362.04 Q 206.74 347.03 220.18 320.84" stroke-width="1.65" opacity="0.90"/>
    <path class="term" d="M 149.52 172.90 Q 163.36 198.83 188.74 213.66" stroke-width="1.65" opacity="0.90"/>
  </g>
  <g id="nodes">
    <circle class="node-main" cx="403.21" cy="225.40" r="6.40"/>
    <circle class="node-aux" cx="377.75" cy="230.70" r="3.25"/>
    <circle class="node-term" cx="350.01" cy="244.63" r="3.60"/>
    <circle class="node-main" cx="181.42" cy="362.04" r="5.95"/>
    <circle class="node-term" cx="220.18" cy="320.84" r="3.60"/>
    <circle class="node-main" cx="149.52" cy="172.90" r="5.95"/>
    <circle class="node-term" cx="188.74" cy="213.66" r="3.60"/>
  </g>
  <g id="ornaments">
    <circle class="orn" cx="466.37" cy="259.56" r="0.90"/>
    <circle class="orn" cx="275.87" cy="453.03" r="1.90"/>
    <circle class="orn" cx="111.71" cy="409.77" r="2.90"/>
    <circle class="orn" cx="119.61" cy="105.26" r="0.90"/>
    <circle class="orn" cx="319.09" cy="59.73" r="1.90"/>
  </g>
  <g id="signature">
    <text class="hash" x="256" y="496" text-anchor="middle">75693061c2eac997</text>
    <text class="label" x="256" y="18" text-anchor="middle">network • sigillum v2.1 • 3 rituale(s) • 6 stmt • depth 3</text>
  </g>
</svg>
